<svg id="logo.svg" xmlns="http://www.w3.org/2000/svg" width="62" height="23" viewBox="0 0 62 23">
  <defs>
    <style>
      .cls-1 {
        fill: #a2a6b8;
        fill-rule: evenodd;
      }
    </style>
  </defs>
  <path class="cls-1" d="M136.75,108.2h-2.024a0.2,0.2,0,0,0-.2.2v17.155a0.2,0.2,0,0,0,.2.2h2.024a0.2,0.2,0,0,0,.2-0.2V108.4a0.2,0.2,0,0,0-.2-0.2m-10.123-.2c-5.466,0-5.466,1.543-5.466,8.976v8.578a0.2,0.2,0,0,0,.2.2h2.228a0.2,0.2,0,0,0,.2-0.2v-6.383h5.669v6.383a0.2,0.2,0,0,0,.2.2h2.227a0.2,0.2,0,0,0,.2-0.2v-8.578c0-7.386,0-8.976-5.467-8.976m-2.834,8.976c0-6.782,0-6.782,2.834-6.782s2.835,0,2.835,6.782h-5.669Zm-20.448-4.189c-4.455,0-4.455,1.132-4.455,6.583s0,6.583,4.455,6.583c3.468,0,4.235-.707,4.405-3.578a0.2,0.2,0,0,0-.2-0.212h-2.029a0.2,0.2,0,0,0-.2.185c-0.124,1.61-.544,1.61-1.972,1.61-1.9,0-2.017,0-2.025-3.79H107.6a0.2,0.2,0,0,0,.2-0.2q0-.291,0-0.6c0-5.417,0-6.583-4.454-6.583m-2.023,5.386c0.017-3.39.192-3.391,2.023-3.391s2,0,2.022,3.391h-4.045ZM80.466,108C75,108,75,109.543,75,116.976s0,8.977,5.466,8.977,5.467-1.59,5.467-8.977,0-8.976-5.467-8.976m0,15.759c-2.834,0-2.834,0-2.834-6.783s0-6.782,2.834-6.782,2.834,0,2.834,6.782,0,6.783-2.834,6.783m33.811-10.972c-1.366,0-2.074.279-2.44,1.17l-0.318-.782a0.3,0.3,0,0,0-.282-0.188h-1.211a0.2,0.2,0,0,0-.2.2v12.368a0.2,0.2,0,0,0,.2.2h2.024a0.2,0.2,0,0,0,.2-0.2V119.37c0-4.588,0-4.588,2.024-4.588s2.025,0,2.025,4.588v6.184a0.2,0.2,0,0,0,.2.2h2.025a0.2,0.2,0,0,0,.2-0.2V119.37c0-5.451,0-6.583-4.455-6.583m-21.865,0c-1.366,0-2.074.279-2.44,1.17l-0.318-.782a0.3,0.3,0,0,0-.282-0.188H88.16a0.2,0.2,0,0,0-.2.2v16.956a0.2,0.2,0,0,0,.2.2h2.025a0.2,0.2,0,0,0,.2-0.2v-4.727a2.822,2.822,0,0,0,2.025.538c4.454,0,4.454-1.131,4.454-6.583s0-6.583-4.454-6.583m0,11.171c-2.025,0-2.025,0-2.025-4.588s0-4.588,2.025-4.588,2.025,0,2.025,4.588,0,4.588-2.025,4.588" transform="translate(-75 -108)"/>
</svg>
